<svg width="25" height="25" viewBox="0 0 25 25" fill="none" xmlns="http://www.w3.org/2000/svg">
<path d="M12.501 24.5C19.1284 24.5 24.501 19.1274 24.501 12.5C24.501 5.87258 19.1284 0.5 12.501 0.5C5.87356 0.5 0.500977 5.87258 0.500977 12.5C0.500977 19.1274 5.87356 24.5 12.501 24.5Z" fill="#26D3A6"/>
<path d="M12.501 24.5C19.1284 24.5 24.501 19.1274 24.501 12.5C24.501 5.87258 19.1284 0.5 12.501 0.5C5.87356 0.5 0.500977 5.87258 0.500977 12.5C0.500977 19.1274 5.87356 24.5 12.501 24.5Z" fill="url(#paint0_linear_4278_15947)"/>
<path d="M13.3514 8.68414C13.357 8.80414 13.4314 8.91774 13.5258 8.92414C14.0154 8.94014 14.3258 8.88174 14.4562 9.04574C14.6114 9.24574 14.4562 9.82094 14.2274 10.2217L11.2458 16.2313L11.1402 16.0585L8.3002 10.0889C8.0858 9.65454 7.8682 9.18814 7.9458 8.98974C8.0234 8.79134 8.1666 8.81774 8.3186 8.81774C8.34266 8.81722 8.36639 8.81196 8.38841 8.80227C8.41044 8.79258 8.43034 8.77865 8.44699 8.76126C8.46363 8.74388 8.47668 8.72339 8.4854 8.70096C8.49412 8.67853 8.49833 8.6546 8.4978 8.63054C8.50227 8.60893 8.50154 8.58657 8.49566 8.5653C8.48979 8.54403 8.47894 8.52446 8.46401 8.50821C8.44909 8.49196 8.43052 8.47948 8.40983 8.47182C8.38913 8.46416 8.36691 8.46153 8.345 8.46414H7.0426C6.9266 8.46414 5.5482 8.46414 5.161 8.49934C5.11837 8.50745 5.08019 8.53089 5.05366 8.56523C5.02713 8.59957 5.01409 8.64244 5.017 8.68574C5.01861 8.71165 5.02539 8.73698 5.03695 8.76023C5.04851 8.78348 5.0646 8.80417 5.08429 8.8211C5.10397 8.83803 5.12685 8.85084 5.15157 8.85878C5.17628 8.86672 5.20234 8.86963 5.2282 8.86734C5.5482 8.88494 5.5194 8.89934 5.6666 9.16334C5.7882 9.38174 5.9266 9.68094 6.2002 10.2537L9.7202 17.7553C9.8866 18.1553 10.2274 18.3417 10.5786 18.3153C10.8898 18.2921 11.1666 18.1489 11.3498 17.7513L14.8938 10.2785C14.9922 10.0777 15.0418 9.97934 15.0762 9.90734C15.1881 9.66599 15.335 9.44251 15.5122 9.24414C15.606 9.16546 15.7088 9.09831 15.8186 9.04414C15.92 8.99091 16.0274 8.95008 16.1386 8.92254C16.1837 8.89975 16.2222 8.86566 16.2502 8.82361C16.2782 8.78155 16.2949 8.73295 16.2986 8.68254C16.2975 8.63583 16.2813 8.59075 16.2525 8.55399C16.2236 8.51723 16.1837 8.49076 16.1386 8.47854C15.2306 8.46094 15.061 8.46094 14.9682 8.46094C14.7938 8.46094 14.6066 8.46094 13.5194 8.47854C13.4719 8.488 13.4292 8.51369 13.3985 8.5512C13.3679 8.5887 13.3512 8.6357 13.3514 8.68414Z" fill="white"/>
<path d="M17.0252 8.6858C17.0231 8.73956 17.0392 8.79245 17.0708 8.83597C17.1025 8.87949 17.1478 8.91113 17.1996 8.9258C17.5684 8.993 17.9484 8.92099 18.13 9.04739C18.3116 9.17379 18.1772 9.64899 17.95 10.0498L15.1956 16.0602L12.454 10.0906C12.2388 9.6562 12.022 9.1898 12.0996 8.9914C12.1772 8.793 12.3204 8.81939 12.4724 8.81939C12.4964 8.81887 12.5201 8.81362 12.5422 8.80393C12.5642 8.79424 12.5841 8.78031 12.6007 8.76292C12.6174 8.74554 12.6304 8.72504 12.6392 8.70261C12.6479 8.68018 12.6521 8.65625 12.6516 8.63219C12.6559 8.61054 12.655 8.58817 12.649 8.56691C12.643 8.54565 12.6321 8.52611 12.6171 8.50988C12.6022 8.49366 12.5835 8.4812 12.5628 8.47354C12.5421 8.46588 12.5199 8.46322 12.498 8.4658H11.2028C11.0868 8.4658 9.70836 8.4658 9.32116 8.501C9.27853 8.50911 9.24034 8.53255 9.21381 8.56689C9.18728 8.60123 9.17424 8.6441 9.17716 8.68739C9.17877 8.71331 9.18555 8.73864 9.19711 8.76188C9.20866 8.78513 9.22476 8.80583 9.24444 8.82276C9.26413 8.83969 9.287 8.8525 9.31172 8.86044C9.33644 8.86838 9.3625 8.87129 9.38836 8.86899C9.70836 8.88659 9.67876 8.90099 9.82676 9.16499C9.94836 9.38339 10.0868 9.6826 10.3596 10.2554L13.8796 17.757C14.046 18.157 14.3116 18.3514 14.662 18.325C14.974 18.3026 15.042 18.1546 15.222 17.757L18.466 10.2842L18.666 9.8762C18.7331 9.76598 18.8058 9.65918 18.8836 9.5562C19.0531 9.34948 19.2605 9.17705 19.4948 9.0482C19.5978 8.99489 19.7068 8.95406 19.8196 8.92659C19.8646 8.90368 19.9029 8.86956 19.931 8.82753C19.959 8.7855 19.9757 8.73696 19.9796 8.68659C19.9783 8.63993 19.9621 8.5949 19.9333 8.55817C19.9044 8.52143 19.8646 8.49494 19.8196 8.48259C18.9116 8.46499 18.7412 8.46499 18.6484 8.46499C18.474 8.46499 18.2868 8.46499 17.1996 8.48259C17.1513 8.49065 17.1074 8.51542 17.0755 8.55256C17.0436 8.5897 17.0258 8.63686 17.0252 8.6858Z" fill="white"/>
<defs>
<linearGradient id="paint0_linear_4278_15947" x1="-0.371022" y1="24.028" x2="19.0842" y2="6.6048" gradientUnits="userSpaceOnUse">
<stop stop-color="#4E5BFF"/>
<stop offset="1" stop-color="#4E5BFF" stop-opacity="0"/>
</linearGradient>
</defs>
</svg>
